<svg id="visual" viewBox="0 0 1920 1080" width="1920" height="1080" xmlns="http://www.w3.org/2000/svg" xmlns:xlink="http://www.w3.org/1999/xlink" version="1.1"><rect x="0" y="0" width="1920" height="1080" fill="#fbf8ff"></rect><path d="M0 307L24.7 283.3C49.3 259.7 98.7 212.3 147.8 239.7C197 267 246 369 295.2 409.7C344.3 450.3 393.7 429.7 443 388.2C492.3 346.7 541.7 284.3 590.8 292.7C640 301 689 380 738.2 388.7C787.3 397.3 836.7 335.7 886 307.8C935.3 280 984.7 286 1034 318.2C1083.3 350.3 1132.7 408.7 1181.8 432.3C1231 456 1280 445 1329.2 437.2C1378.3 429.3 1427.7 424.7 1477 407.5C1526.3 390.3 1575.7 360.7 1624.8 319.3C1674 278 1723 225 1772.2 218C1821.3 211 1870.7 250 1895.3 269.5L1920 289L1920 1081L1895.3 1081C1870.7 1081 1821.3 1081 1772.2 1081C1723 1081 1674 1081 1624.8 1081C1575.7 1081 1526.3 1081 1477 1081C1427.7 1081 1378.3 1081 1329.2 1081C1280 1081 1231 1081 1181.8 1081C1132.7 1081 1083.3 1081 1034 1081C984.7 1081 935.3 1081 886 1081C836.7 1081 787.3 1081 738.2 1081C689 1081 640 1081 590.8 1081C541.7 1081 492.3 1081 443 1081C393.7 1081 344.3 1081 295.2 1081C246 1081 197 1081 147.8 1081C98.7 1081 49.3 1081 24.7 1081L0 1081Z" fill="#fa7268"></path><path d="M0 488L24.7 474C49.3 460 98.7 432 147.8 423C197 414 246 424 295.2 435.5C344.3 447 393.7 460 443 472.5C492.3 485 541.7 497 590.8 457C640 417 689 325 738.2 286C787.3 247 836.7 261 886 261C935.3 261 984.7 247 1034 258.2C1083.3 269.3 1132.7 305.7 1181.8 336.3C1231 367 1280 392 1329.2 413.2C1378.3 434.3 1427.7 451.7 1477 463C1526.3 474.3 1575.7 479.7 1624.8 482.7C1674 485.7 1723 486.3 1772.2 492C1821.3 497.7 1870.7 508.3 1895.3 513.7L1920 519L1920 1081L1895.3 1081C1870.7 1081 1821.3 1081 1772.2 1081C1723 1081 1674 1081 1624.8 1081C1575.7 1081 1526.3 1081 1477 1081C1427.7 1081 1378.3 1081 1329.2 1081C1280 1081 1231 1081 1181.8 1081C1132.7 1081 1083.3 1081 1034 1081C984.7 1081 935.3 1081 886 1081C836.7 1081 787.3 1081 738.2 1081C689 1081 640 1081 590.8 1081C541.7 1081 492.3 1081 443 1081C393.7 1081 344.3 1081 295.2 1081C246 1081 197 1081 147.8 1081C98.7 1081 49.3 1081 24.7 1081L0 1081Z" fill="#f56967"></path><path d="M0 387L24.7 392.3C49.3 397.7 98.7 408.3 147.8 398.8C197 389.3 246 359.7 295.2 349.7C344.3 339.7 393.7 349.3 443 392.3C492.3 435.3 541.7 511.7 590.8 534.2C640 556.7 689 525.3 738.2 523.7C787.3 522 836.7 550 886 559.8C935.3 569.7 984.7 561.3 1034 535.8C1083.3 510.3 1132.7 467.7 1181.8 444.2C1231 420.7 1280 416.3 1329.2 430.8C1378.3 445.3 1427.7 478.7 1477 469.8C1526.3 461 1575.7 410 1624.8 399.7C1674 389.3 1723 419.7 1772.2 462.7C1821.3 505.7 1870.7 561.3 1895.3 589.2L1920 617L1920 1081L1895.3 1081C1870.7 1081 1821.3 1081 1772.2 1081C1723 1081 1674 1081 1624.8 1081C1575.7 1081 1526.3 1081 1477 1081C1427.7 1081 1378.3 1081 1329.2 1081C1280 1081 1231 1081 1181.8 1081C1132.7 1081 1083.3 1081 1034 1081C984.7 1081 935.3 1081 886 1081C836.7 1081 787.3 1081 738.2 1081C689 1081 640 1081 590.8 1081C541.7 1081 492.3 1081 443 1081C393.7 1081 344.3 1081 295.2 1081C246 1081 197 1081 147.8 1081C98.7 1081 49.3 1081 24.7 1081L0 1081Z" fill="#ef5f67"></path><path d="M0 574L24.7 557.5C49.3 541 98.7 508 147.8 509.7C197 511.3 246 547.7 295.2 573C344.3 598.3 393.7 612.7 443 591.8C492.3 571 541.7 515 590.8 495.8C640 476.7 689 494.3 738.2 495C787.3 495.7 836.7 479.3 886 470.3C935.3 461.3 984.7 459.7 1034 491.5C1083.3 523.3 1132.7 588.7 1181.8 605.7C1231 622.7 1280 591.3 1329.2 589.3C1378.3 587.3 1427.7 614.7 1477 626.3C1526.3 638 1575.7 634 1624.8 627.7C1674 621.3 1723 612.7 1772.2 611.3C1821.3 610 1870.7 616 1895.3 619L1920 622L1920 1081L1895.3 1081C1870.7 1081 1821.3 1081 1772.2 1081C1723 1081 1674 1081 1624.8 1081C1575.7 1081 1526.3 1081 1477 1081C1427.7 1081 1378.3 1081 1329.2 1081C1280 1081 1231 1081 1181.8 1081C1132.7 1081 1083.3 1081 1034 1081C984.7 1081 935.3 1081 886 1081C836.7 1081 787.3 1081 738.2 1081C689 1081 640 1081 590.8 1081C541.7 1081 492.3 1081 443 1081C393.7 1081 344.3 1081 295.2 1081C246 1081 197 1081 147.8 1081C98.7 1081 49.3 1081 24.7 1081L0 1081Z" fill="#e95667"></path><path d="M0 585L24.7 612C49.3 639 98.7 693 147.8 687.3C197 681.7 246 616.3 295.2 620.8C344.3 625.3 393.7 699.7 443 704.8C492.3 710 541.7 646 590.8 627.8C640 609.7 689 637.3 738.2 653C787.3 668.7 836.7 672.3 886 677.7C935.3 683 984.7 690 1034 697.3C1083.3 704.7 1132.7 712.3 1181.8 705.5C1231 698.7 1280 677.3 1329.2 649.3C1378.3 621.3 1427.7 586.7 1477 569.8C1526.3 553 1575.7 554 1624.8 563C1674 572 1723 589 1772.2 589.3C1821.3 589.7 1870.7 573.3 1895.3 565.2L1920 557L1920 1081L1895.3 1081C1870.7 1081 1821.3 1081 1772.2 1081C1723 1081 1674 1081 1624.8 1081C1575.7 1081 1526.3 1081 1477 1081C1427.7 1081 1378.3 1081 1329.2 1081C1280 1081 1231 1081 1181.8 1081C1132.7 1081 1083.3 1081 1034 1081C984.7 1081 935.3 1081 886 1081C836.7 1081 787.3 1081 738.2 1081C689 1081 640 1081 590.8 1081C541.7 1081 492.3 1081 443 1081C393.7 1081 344.3 1081 295.2 1081C246 1081 197 1081 147.8 1081C98.7 1081 49.3 1081 24.7 1081L0 1081Z" fill="#e34c67"></path><path d="M0 625L24.7 638.5C49.3 652 98.7 679 147.8 680C197 681 246 656 295.2 664.7C344.3 673.3 393.7 715.7 443 736.2C492.3 756.7 541.7 755.3 590.8 744.3C640 733.3 689 712.7 738.2 692C787.3 671.3 836.7 650.7 886 666C935.3 681.3 984.7 732.7 1034 749.5C1083.3 766.3 1132.7 748.7 1181.8 740C1231 731.3 1280 731.7 1329.2 730.2C1378.3 728.7 1427.7 725.3 1477 707.5C1526.3 689.7 1575.7 657.3 1624.8 661.2C1674 665 1723 705 1772.2 718.3C1821.3 731.7 1870.7 718.3 1895.3 711.7L1920 705L1920 1081L1895.3 1081C1870.7 1081 1821.3 1081 1772.2 1081C1723 1081 1674 1081 1624.8 1081C1575.7 1081 1526.3 1081 1477 1081C1427.7 1081 1378.3 1081 1329.2 1081C1280 1081 1231 1081 1181.8 1081C1132.7 1081 1083.3 1081 1034 1081C984.7 1081 935.3 1081 886 1081C836.7 1081 787.3 1081 738.2 1081C689 1081 640 1081 590.8 1081C541.7 1081 492.3 1081 443 1081C393.7 1081 344.3 1081 295.2 1081C246 1081 197 1081 147.8 1081C98.7 1081 49.3 1081 24.7 1081L0 1081Z" fill="#dc4267"></path><path d="M0 760L24.7 764.5C49.3 769 98.7 778 147.8 787.5C197 797 246 807 295.2 818.5C344.3 830 393.7 843 443 845.8C492.3 848.7 541.7 841.3 590.8 821.8C640 802.3 689 770.7 738.2 776.8C787.3 783 836.7 827 886 841.7C935.3 856.3 984.7 841.7 1034 831.8C1083.3 822 1132.7 817 1181.8 822.8C1231 828.7 1280 845.3 1329.2 846C1378.3 846.7 1427.7 831.3 1477 820.8C1526.3 810.3 1575.7 804.7 1624.8 788.8C1674 773 1723 747 1772.2 745.2C1821.3 743.3 1870.7 765.7 1895.3 776.8L1920 788L1920 1081L1895.3 1081C1870.7 1081 1821.3 1081 1772.2 1081C1723 1081 1674 1081 1624.8 1081C1575.7 1081 1526.3 1081 1477 1081C1427.7 1081 1378.3 1081 1329.2 1081C1280 1081 1231 1081 1181.8 1081C1132.7 1081 1083.3 1081 1034 1081C984.7 1081 935.3 1081 886 1081C836.7 1081 787.3 1081 738.2 1081C689 1081 640 1081 590.8 1081C541.7 1081 492.3 1081 443 1081C393.7 1081 344.3 1081 295.2 1081C246 1081 197 1081 147.8 1081C98.7 1081 49.3 1081 24.7 1081L0 1081Z" fill="#d53867"></path><path d="M0 833L24.7 844C49.3 855 98.7 877 147.8 893C197 909 246 919 295.2 913.3C344.3 907.7 393.7 886.3 443 871.8C492.3 857.3 541.7 849.7 590.8 842.3C640 835 689 828 738.2 834.7C787.3 841.3 836.7 861.7 886 861.7C935.3 861.7 984.7 841.3 1034 845.2C1083.3 849 1132.7 877 1181.8 877.7C1231 878.3 1280 851.7 1329.2 844C1378.3 836.3 1427.7 847.7 1477 846.3C1526.3 845 1575.7 831 1624.8 837.7C1674 844.3 1723 871.7 1772.2 889C1821.3 906.3 1870.7 913.7 1895.3 917.3L1920 921L1920 1081L1895.3 1081C1870.7 1081 1821.3 1081 1772.2 1081C1723 1081 1674 1081 1624.8 1081C1575.7 1081 1526.3 1081 1477 1081C1427.7 1081 1378.3 1081 1329.2 1081C1280 1081 1231 1081 1181.8 1081C1132.7 1081 1083.3 1081 1034 1081C984.7 1081 935.3 1081 886 1081C836.7 1081 787.3 1081 738.2 1081C689 1081 640 1081 590.8 1081C541.7 1081 492.3 1081 443 1081C393.7 1081 344.3 1081 295.2 1081C246 1081 197 1081 147.8 1081C98.7 1081 49.3 1081 24.7 1081L0 1081Z" fill="#ce2e68"></path><path d="M0 957L24.7 963.3C49.3 969.7 98.7 982.3 147.8 980.5C197 978.7 246 962.3 295.2 948.3C344.3 934.3 393.7 922.7 443 930.2C492.3 937.7 541.7 964.3 590.8 970.2C640 976 689 961 738.2 965.7C787.3 970.3 836.7 994.7 886 1003.2C935.3 1011.7 984.7 1004.3 1034 988.7C1083.3 973 1132.7 949 1181.8 942.7C1231 936.3 1280 947.7 1329.2 945.2C1378.3 942.7 1427.7 926.3 1477 935.3C1526.3 944.3 1575.7 978.7 1624.8 999.2C1674 1019.7 1723 1026.3 1772.2 1019C1821.3 1011.7 1870.7 990.3 1895.3 979.7L1920 969L1920 1081L1895.3 1081C1870.7 1081 1821.3 1081 1772.2 1081C1723 1081 1674 1081 1624.8 1081C1575.7 1081 1526.3 1081 1477 1081C1427.7 1081 1378.3 1081 1329.2 1081C1280 1081 1231 1081 1181.8 1081C1132.7 1081 1083.3 1081 1034 1081C984.7 1081 935.3 1081 886 1081C836.7 1081 787.3 1081 738.2 1081C689 1081 640 1081 590.8 1081C541.7 1081 492.3 1081 443 1081C393.7 1081 344.3 1081 295.2 1081C246 1081 197 1081 147.8 1081C98.7 1081 49.3 1081 24.7 1081L0 1081Z" fill="#c62368"></path></svg>